# xmcd
# 
# Track frame offsets:
#     150
#     35461
#     51969
#     79062
#     92582
#     112021
#     138826
#     164820
#     186073
#     201510
#     224205
# 
# Disc length: 3284
# 
# Revision: 1
# Processed by: cddbd v1.5.2PL0 Copyright (c) Steve Scherf et al.
# Submitted via: fre:ac v1.0.31
# 
DISCID=a70cd20b
DTITLE=Otis Rush - Double Trouble - Live Cambridge 1973
DYEAR=2015
DGENRE=Blues
TTITLE0=Intro - Watermelon Man
TTITLE1=It Takes Time
TTITLE2=I Can't Quit You Baby
TTITLE3=Keep On Loving Me Baby
TTITLE4=Popcorn
TTITLE5=Gambler's Blues
TTITLE6=Why I Sing The Blues
TTITLE7=Please Love Me
TTITLE8=Double Trouble
TTITLE9=I Think It's Gonna Work Out Fine
TTITLE10=Please, Please, Please
EXTD=
EXTT0=
EXTT1=
EXTT2=
EXTT3=
EXTT4=
EXTT5=
EXTT6=
EXTT7=
EXTT8=
EXTT9=
EXTT10=
PLAYORDER=
